<?xml version="1.0" encoding="iso-8859-1"?>
<!-- Generator: Adobe Illustrator 19.0.0, SVG Export Plug-In . SVG Version: 6.00 Build 0)  -->
<svg version="1.1" id="Capa_1" xmlns="http://www.w3.org/2000/svg" xmlns:xlink="http://www.w3.org/1999/xlink" x="0px" y="0px"
	 viewBox="0 0 456 456" style="enable-background:new 0 0 456 456;" xml:space="preserve">
<path style="fill:#F7BA61;" d="M452,104l-40-72H36L4,104H452z"/>
<path style="fill:#EBEBEB;" d="M452,104v352H4V104"/>
<path style="fill:#DC4D41;" d="M420,456H308V286.4c0-12.371,10.029-22.4,22.4-22.4h67.2c12.371,0,22.4,10.029,22.4,22.4L420,456z"/>
<path style="fill:#6CBAE5;" d="M308,304h112v152H308V304z"/>
<g>
	<path style="fill:#4799CF;" d="M308,440h112v16H308V440z"/>
	<path style="fill:#4799CF;" d="M340,336h48v88h-48V336z"/>
</g>
<path style="fill:#428DC5;" d="M340,408h48v16h-48V408z"/>
<path style="fill:#8ACED8;" d="M268,424H44V280c0-8.837,7.163-16,16-16h192c8.837,0,16,7.163,16,16V424z"/>
<path style="fill:#DBDBDB;" d="M116,104h112l0,0v80c0,26.51-21.49,48-48,48h-16c-26.51,0-48-21.49-48-48V104L116,104z"/>
<g>
	<path style="fill:#F7BA61;" d="M4,104h112l0,0v76.8c0,28.277-22.923,51.2-51.2,51.2H52c-26.51,0-48-21.49-48-48V104L4,104z"/>
	<path style="fill:#F7BA61;" d="M228,104h112l0,0v88c0,22.091-17.909,40-40,40h-32c-22.091,0-40-17.909-40-40V104L228,104z"/>
</g>
<path style="fill:#DBDBDB;" d="M340,104h112l0,0v80c0,26.51-21.49,48-48,48h-16c-26.51,0-48-21.49-48-48V104L340,104z"/>
<path style="fill:#F0F0F0;" d="M36,0h376v32H36V0z"/>
<path style="fill:#B9B9B9;" d="M140,32l-24,72h112V32H140z"/>
<g>
	<path style="fill:#EA9D2D;" d="M36,32L4,104h112l24-72H36z"/>
	<path style="fill:#EA9D2D;" d="M316,32h-88v72h112L316,32z"/>
</g>
<path style="fill:#B9B9B9;" d="M452,104l-40-72h-96l24,72H452z"/>
<path style="fill:#8ACED8;" d="M44,304h224v120H44V304z"/>
<g>
	<path style="fill:#6FBBC6;" d="M44,408h224v16H44V408z"/>
	<path style="fill:#6FBBC6;" d="M44,296h224v24H44V296z"/>
</g>
<g>
	<path style="fill:#EA9D2D;" d="M268,280c0-8.837-7.163-16-16-16H60c-8.837,0-16,7.163-16,16v24h224V280z"/>
	<path style="fill:#EA9D2D;" d="M420,286.4c0-12.371-10.029-22.4-22.4-22.4h-67.2c-12.371,0-22.4,10.029-22.4,22.4V312h112
		L420,286.4z"/>
</g>
<path style="fill:#4799CF;" d="M308,304h112v16H308V304z"/>
<g>
</g>
<g>
</g>
<g>
</g>
<g>
</g>
<g>
</g>
<g>
</g>
<g>
</g>
<g>
</g>
<g>
</g>
<g>
</g>
<g>
</g>
<g>
</g>
<g>
</g>
<g>
</g>
<g>
</g>
</svg>
